<?xml version="1.0" encoding="UTF-8"?>
<svg xmlns="http://www.w3.org/2000/svg" viewBox="0 0 64 64" role="img" aria-labelledby="title desc">
  <title>Bonaval – Escalera Triple</title>
  <desc>Icono minimal con tres rampas ascendentes simbolizando la triple escalera barroca</desc>
  <defs>
    <linearGradient id="grad" x1="0" y1="0" x2="1" y2="1">
      <stop offset="0%" stop-color="#d6b25e" />
      <stop offset="100%" stop-color="#6aa7ff" />
    </linearGradient>
    <linearGradient id="bgc" x1="0" y1="0" x2="0" y2="1">
      <stop offset="0%" stop-color="#14161a" />
      <stop offset="100%" stop-color="#0e0f12" />
    </linearGradient>
  </defs>
  <rect x="3" y="3" width="58" height="58" rx="14" fill="url(#bgc)" stroke="#242a31" stroke-width="2" />
  <!-- círculo interior sutil -->
  <circle cx="32" cy="32" r="20" fill="#181d22" stroke="#2d333b" stroke-width="1.5" />
  <!-- escalera triple estilizada -->
  <g fill="none" stroke="url(#grad)" stroke-width="4" stroke-linecap="round" stroke-linejoin="round">
    <path d="M20 40c6-6 11-9 16-14 3-3 6-6 8-10" />
    <path d="M20 48c7-7 14-12 21-19 4-4 7-8 9-13" opacity=".85" />
    <path d="M20 32c4-4 8-6 12-10 2.5-2.3 5-4.8 7-7.5" opacity=".55" />
  </g>
  <!-- punto focal -->
  <circle cx="32" cy="32" r="3.2" fill="url(#grad)" />
</svg>
